# xmcd CD database file
# Copyright (C) 1993-1998 Ti Kan
# 
# Track frame offsets:
#     150
#     12605
#     24935
#     48175
#     63592
#     83165
#     94110
#     112457
#     127667
#     155855
#     170735
# 
# Disc length: 2481 seconds
# 
# Revision: 1
# Processed by: cddbd v1.4b41PL1 Copyright (c) Steve Scherf et al.
# Submitted via: DiscPlay 4.0.3
# 
DISCID=9109af0b
DTITLE=Hound Dog and the Houserockers - Natural Boogie
DYEAR=1900
DGENRE=
TTITLE0=Take Five
TTITLE1=Hawaiian Boogie
TTITLE2=See Me In The Evening
TTITLE3=You Can't Sit Down
TTITLE4=Sitting At Home Alone
TTITLE5=One More Time
TTITLE6=Roll Your Moneymaker
TTITLE7=Buster's Boogie
TTITLE8=Sadie
TTITLE9=Talk To My Baby
TTITLE10=Goodnight Boogie
EXTD=
EXTT0=
EXTT1=
EXTT2=
EXTT3=
EXTT4=
EXTT5=
EXTT6=
EXTT7=
EXTT8=
EXTT9=
EXTT10=
PLAYORDER=
